<?xml version="1.0" encoding="UTF-8"?>
<svg version="1.1" xmlns="http://www.w3.org/2000/svg" width="512" height="512">
<path d="M0 0 C1.10190674 0.29753174 1.10190674 0.29753174 2.22607422 0.60107422 C24.83004626 6.79806285 44.07957734 19.00597729 61 35 C61.81082031 35.74636719 62.62164062 36.49273437 63.45703125 37.26171875 C85.64441328 58.40087801 99.61228156 88.66452125 103 119 C102.93425781 120.67255859 102.93425781 120.67255859 102.8671875 122.37890625 C102.6059909 129.47474709 104.32662576 132.97539071 109.02612305 138.08935547 C113.14565426 142.3338407 117.26562206 146.52455736 121.7734375 150.359375 C125.02609071 153.48286147 126.78710561 156.50241912 127.42602539 160.99682617 C127.44141357 162.04330322 127.45680176 163.08978027 127.47265625 164.16796875 C127.49142822 165.30371338 127.5102002 166.43945801 127.52954102 167.60961914 C127.48633025 172.75169985 127.28220998 177.86534611 127 183 C132.61 183 138.22 183 144 183 C144.33 181.35 144.66 179.7 145 178 C150.36208657 166.45945382 158.63626554 160.27989586 170.1875 155.75 C182.09426495 153.40768558 192.96601435 154.95163199 203.11328125 161.62109375 C207.50751903 164.83261743 210.76232753 167.66509115 213.6875 172.3125 C214.26886719 173.21613281 214.85023438 174.11976563 215.44921875 175.05078125 C220.2345043 184.15126133 220.35492655 195.2821606 218.34765625 205.234375 C214.82093554 215.95076238 207.77300008 223.55251204 198 229 C188.5990613 233.41749795 176.9303327 233.62801499 167.125 230.4375 C157.500004 226.35330288 149.22258357 218.99459122 144.80859375 209.4140625 C144 207 144 207 144 204 C138.39 204 132.78 204 127 204 C127.04640625 205.89105469 127.0928125 207.78210938 127.140625 209.73046875 C127.17814442 212.21613004 127.21454439 214.70180841 127.25 217.1875 C127.28351563 218.43337891 127.31703125 219.67925781 127.3515625 220.96289062 C127.36445313 222.16494141 127.37734375 223.36699219 127.390625 224.60546875 C127.41157227 225.71043701 127.43251953 226.81540527 127.45410156 227.95385742 C126.88292893 231.78532031 125.78398982 233.33273932 123 236 C120.34960937 237.23852539 120.34960937 237.23852539 117.34375 238.09765625 C115.68472656 238.58782227 115.68472656 238.58782227 113.9921875 239.08789062 C112.83976562 239.40951172 111.68734375 239.73113281 110.5 240.0625 C108.23917827 240.71865803 105.97875902 241.37620443 103.71875 242.03515625 C102.60628906 242.35734131 101.49382812 242.67952637 100.34765625 243.01147461 C97.02060018 243.993917 93.7090283 245.00909933 90.40625 246.0703125 C89.46072266 246.37340332 88.51519531 246.67649414 87.54101562 246.98876953 C80.76089271 249.6870083 77.08164133 254.599668 74 261 C72.91456873 264.36757408 72.86114447 267.5325859 72.82421875 271.05859375 C72.80037109 272.25033203 72.77652344 273.44207031 72.75195312 274.66992188 C72.70958863 277.14631918 72.67801657 279.62292897 72.65820312 282.09960938 C72.35994017 295.04977083 69.33309479 306.81510637 61 317 C60.41710205 317.37374756 59.8342041 317.74749512 59.23364258 318.13256836 C56.99640631 319.60671629 55.55991873 320.80474072 54 323 C53.07031201 327.88057465 53.19478944 332.73947377 53.3125 337.6875 C53.59998976 359.35570983 53.59998976 359.35570983 46.31640625 367.1171875 C43.14772605 371.06067146 42.96514084 374.17482216 42.9375 379.125 C42.92912109 379.95942627 42.92074219 380.79385254 42.91210938 381.65356445 C43.20956994 388.18446245 45.24770743 391.78320295 50 396.1875 C51.95075357 397.89024609 53.92115257 399.450145 56 401 C56.59683594 400.7834375 57.19367188 400.566875 57.80859375 400.34375 C68.87693382 396.79135557 81.72531715 395.97136298 92.57421875 400.6796875 C103.13293221 406.42662011 109.50412251 414.61090365 113.30859375 425.9765625 C115.6197808 436.08310925 114.67817118 446.61309811 109.48828125 455.625 C103.04673895 465.35245264 94.76445077 472.20045801 83.1796875 474.6796875 C72.20789333 476.29203001 61.20923762 474.455735 52.125 467.8125 C43.52271575 460.37823233 37.82383682 451.85617586 36.62109375 440.38671875 C36.3449513 431.66596191 38.01878583 425.2025833 41 417 C40.45996338 416.47043701 39.91992676 415.94087402 39.36352539 415.39526367 C36.92464601 412.99790384 34.49351717 410.59283095 32.0625 408.1875 C31.21236328 407.35412109 30.36222656 406.52074219 29.48632812 405.66210938 C28.27299805 404.45844727 28.27299805 404.45844727 27.03515625 403.23046875 C26.2862915 402.49207764 25.53742676 401.75368652 24.76586914 400.99291992 C19.65021426 395.21950767 22 389.26673549 22 381 C6.16 381 -9.68 381 -26 381 C-26 398.16 -26 415.32 -26 433 C-23.03 433.99 -20.06 434.98 -17 436 C-8.74478409 440.34413821 -2.34253875 448.92427026 0.5 457.75390625 C3.075046 469.3214957 2.0997654 479.80509376 -3.625 490.25 C-9.50356739 499.22634187 -17.50275158 505.44882926 -28 508 C-40.06277698 509.61957842 -50.65699379 508.21960128 -60.7421875 501.05078125 C-68.75774544 494.42664805 -74.21812501 486.04465197 -75.81640625 475.6640625 C-76.6303721 463.85289845 -74.31005264 453.22004672 -66.83203125 443.88671875 C-61.21081489 438.09770488 -55.7511388 435.21461108 -48 433 C-48 415.84 -48 398.68 -48 381 C-63.84 381 -79.68 381 -96 381 C-96 385.95 -96 390.9 -96 396 C-98.26450859 399.77418099 -99.79067288 402.03402211 -102.79296875 404.98828125 C-103.50517578 405.69404297 -104.21738281 406.39980469 -104.95117188 407.12695312 C-105.68916016 407.84818359 -106.42714844 408.56941406 -107.1875 409.3125 C-107.93708984 410.05306641 -108.68667969 410.79363281 -109.45898438 411.55664062 C-111.30153282 413.37571712 -113.14859662 415.18994389 -115 417 C-114.69255859 417.76699219 -114.38511719 418.53398437 -114.06835938 419.32421875 C-109.82633628 430.19682639 -109.05731269 441.61452362 -113.6796875 452.5078125 C-118.96318068 462.48079668 -126.63356535 469.79762996 -137.375 473.4375 C-149.2723169 476.65074508 -159.44344861 475.26879435 -170.1875 469.3125 C-178.77699053 463.83299742 -185.05500757 455.56936543 -187.61328125 445.61328125 C-189.30782596 434.16226697 -187.80463448 424.6274278 -182.0625 414.625 C-175.91806287 406.80480729 -168.0723264 399.68105587 -158 398 C-148.22903598 397.30688728 -139.31172443 397.62123174 -130 401 C-122.03075181 395.12810911 -122.03075181 395.12810911 -117.33496094 386.69580078 C-116.42836727 380.23728945 -116.43601463 373.28102129 -119.27734375 367.3203125 C-120.75004132 365.37391789 -120.75004132 365.37391789 -122.39672852 363.80126953 C-128.9585649 356.42907084 -127.37622937 345.01913903 -127.1340332 335.85107422 C-126.71036127 327.83464396 -126.71036127 327.83464396 -129.70043945 320.71484375 C-131.72602258 319.00277996 -133.82796183 317.51789955 -136 316 C-138.20703125 313.078125 -138.20703125 313.078125 -139.8125 310.25 C-140.35519531 309.32703125 -140.89789063 308.4040625 -141.45703125 307.453125 C-146.21152109 296.81269711 -146.44219833 286.61985378 -146.52734375 275.11914062 C-146.67785771 266.96039864 -147.10471583 259.71259257 -152.6875 253.25 C-153.12449219 252.71890625 -153.56148437 252.1878125 -154.01171875 251.640625 C-161.75694837 245.24966932 -172.33233254 243.47767597 -181.81762695 240.92724609 C-183.88529636 240.36800348 -185.94848774 239.79411643 -188.01171875 239.21875 C-189.23334717 238.88810547 -190.45497559 238.55746094 -191.71362305 238.21679688 C-195.17291923 236.93597582 -197.35245442 235.55176324 -200 233 C-201.07917226 229.76248322 -201.11425601 227.42248229 -201.09765625 224.01953125 C-201.09282227 222.27446289 -201.09282227 222.27446289 -201.08789062 220.49414062 C-201.07532227 218.67172852 -201.07532227 218.67172852 -201.0625 216.8125 C-201.05798828 215.58595703 -201.05347656 214.35941406 -201.04882812 213.09570312 C-201.03703076 210.06378135 -201.01909514 207.0318846 -201 204 C-206.61 204 -212.22 204 -218 204 C-218.33 205.65 -218.66 207.3 -219 209 C-223.55930613 218.98162377 -230.7943787 226.18059463 -240.95703125 230.30859375 C-250.55175109 233.55575515 -262.22539146 233.32561867 -271.54296875 229.31640625 C-281.56621344 223.94624177 -288.57897143 215.88742367 -292.41113281 205.15258789 C-293.41059176 201.49909305 -293.4890478 197.95698365 -293.4375 194.1875 C-293.42920166 193.39996338 -293.42090332 192.61242676 -293.41235352 191.80102539 C-293.10475747 181.13368201 -289.56725146 172.62671906 -282 165 C-271.71260382 156.67904416 -261.12146804 153.9691327 -248 155 C-236.89673167 157.2504793 -228.67446206 162.82493772 -222.21875 172.078125 C-218 178.73076923 -218 178.73076923 -218 183 C-212.39 183 -206.78 183 -201 183 C-201.15662109 180.48439453 -201.15662109 180.48439453 -201.31640625 177.91796875 C-202.20242201 157.68398281 -202.20242201 157.68398281 -196.9375 151.375 C-194.44140625 149.00390625 -194.44140625 149.00390625 -192 147 C-190.78120549 145.78120549 -189.57178998 144.55290875 -188.375 143.3125 C-186.66498194 141.59052377 -184.99491771 139.99602526 -183.08203125 138.5 C-176.53884381 132.67184129 -177.00935477 125.42826358 -176.44140625 117.23828125 C-174.25445394 87.2731978 -158.21975484 59.39091611 -138 38 C-137.25363281 37.18917969 -136.50726563 36.37835938 -135.73828125 35.54296875 C-119.11082668 18.0910123 -97.15403261 6.25194432 -74 0 C-73.28215332 -0.20737793 -72.56430664 -0.41475586 -71.82470703 -0.62841797 C-49.44310073 -6.92433346 -22.26906662 -6.43328591 0 0 Z " fill="#27A1CB" transform="translate(293,4)"/>
<path d="M0 0 C1.10190674 0.29753174 1.10190674 0.29753174 2.22607422 0.60107422 C24.83004626 6.79806285 44.07957734 19.00597729 61 35 C61.81082031 35.74636719 62.62164062 36.49273437 63.45703125 37.26171875 C85.64441328 58.40087801 99.61228156 88.66452125 103 119 C102.93425781 120.67255859 102.93425781 120.67255859 102.8671875 122.37890625 C102.6059909 129.47474709 104.32662576 132.97539071 109.02612305 138.08935547 C113.14565426 142.3338407 117.26562206 146.52455736 121.7734375 150.359375 C125.02609071 153.48286147 126.78710561 156.50241912 127.42602539 160.99682617 C127.44141357 162.04330322 127.45680176 163.08978027 127.47265625 164.16796875 C127.49142822 165.30371338 127.5102002 166.43945801 127.52954102 167.60961914 C127.48633025 172.75169985 127.28220998 177.86534611 127 183 C132.61 183 138.22 183 144 183 C144.33 181.35 144.66 179.7 145 178 C150.36208657 166.45945382 158.63626554 160.27989586 170.1875 155.75 C182.09426495 153.40768558 192.96601435 154.95163199 203.11328125 161.62109375 C207.50751903 164.83261743 210.76232753 167.66509115 213.6875 172.3125 C214.26886719 173.21613281 214.85023438 174.11976563 215.44921875 175.05078125 C220.2345043 184.15126133 220.35492655 195.2821606 218.34765625 205.234375 C214.82093554 215.95076238 207.77300008 223.55251204 198 229 C188.5990613 233.41749795 176.9303327 233.62801499 167.125 230.4375 C157.500004 226.35330288 149.22258357 218.99459122 144.80859375 209.4140625 C144 207 144 207 144 204 C138.39 204 132.78 204 127 204 C127.04640625 205.89105469 127.0928125 207.78210938 127.140625 209.73046875 C127.17814442 212.21613004 127.21454439 214.70180841 127.25 217.1875 C127.28351563 218.43337891 127.31703125 219.67925781 127.3515625 220.96289062 C127.36445313 222.16494141 127.37734375 223.36699219 127.390625 224.60546875 C127.41157227 225.71043701 127.43251953 226.81540527 127.45410156 227.95385742 C126.88292893 231.78532031 125.78398982 233.33273932 123 236 C120.34960937 237.23852539 120.34960937 237.23852539 117.34375 238.09765625 C115.68472656 238.58782227 115.68472656 238.58782227 113.9921875 239.08789062 C112.83976562 239.40951172 111.68734375 239.73113281 110.5 240.0625 C108.23917827 240.71865803 105.97875902 241.37620443 103.71875 242.03515625 C102.60628906 242.35734131 101.49382812 242.67952637 100.34765625 243.01147461 C97.02060018 243.993917 93.7090283 245.00909933 90.40625 246.0703125 C89.46072266 246.37340332 88.51519531 246.67649414 87.54101562 246.98876953 C80.76089271 249.6870083 77.08164133 254.599668 74 261 C72.91456873 264.36757408 72.86114447 267.5325859 72.82421875 271.05859375 C72.80037109 272.25033203 72.77652344 273.44207031 72.75195312 274.66992188 C72.70958863 277.14631918 72.67801657 279.62292897 72.65820312 282.09960938 C72.35994017 295.04977083 69.33309479 306.81510637 61 317 C60.41710205 317.37374756 59.8342041 317.74749512 59.23364258 318.13256836 C56.99640631 319.60671629 55.55991873 320.80474072 54 323 C53.07031201 327.88057465 53.19478944 332.73947377 53.3125 337.6875 C53.59998976 359.35570983 53.59998976 359.35570983 46.31640625 367.1171875 C43.14772605 371.06067146 42.96514084 374.17482216 42.9375 379.125 C42.92912109 379.95942627 42.92074219 380.79385254 42.91210938 381.65356445 C43.20956994 388.18446245 45.24770743 391.78320295 50 396.1875 C51.95075357 397.89024609 53.92115257 399.450145 56 401 C56.59683594 400.7834375 57.19367188 400.566875 57.80859375 400.34375 C68.87693382 396.79135557 81.72531715 395.97136298 92.57421875 400.6796875 C103.13293221 406.42662011 109.50412251 414.61090365 113.30859375 425.9765625 C115.6197808 436.08310925 114.67817118 446.61309811 109.48828125 455.625 C103.04673895 465.35245264 94.76445077 472.20045801 83.1796875 474.6796875 C72.20789333 476.29203001 61.20923762 474.455735 52.125 467.8125 C43.52271575 460.37823233 37.82383682 451.85617586 36.62109375 440.38671875 C36.3449513 431.66596191 38.01878583 425.2025833 41 417 C40.45996338 416.47043701 39.91992676 415.94087402 39.36352539 415.39526367 C36.92464601 412.99790384 34.49351717 410.59283095 32.0625 408.1875 C31.21236328 407.35412109 30.36222656 406.52074219 29.48632812 405.66210938 C28.27299805 404.45844727 28.27299805 404.45844727 27.03515625 403.23046875 C26.2862915 402.49207764 25.53742676 401.75368652 24.76586914 400.99291992 C19.65021426 395.21950767 22 389.26673549 22 381 C6.16 381 -9.68 381 -26 381 C-26 398.16 -26 415.32 -26 433 C-23.03 433.99 -20.06 434.98 -17 436 C-8.74478409 440.34413821 -2.34253875 448.92427026 0.5 457.75390625 C3.075046 469.3214957 2.0997654 479.80509376 -3.625 490.25 C-9.50356739 499.22634187 -17.50275158 505.44882926 -28 508 C-40.06277698 509.61957842 -50.65699379 508.21960128 -60.7421875 501.05078125 C-68.75774544 494.42664805 -74.21812501 486.04465197 -75.81640625 475.6640625 C-76.6303721 463.85289845 -74.31005264 453.22004672 -66.83203125 443.88671875 C-61.21081489 438.09770488 -55.7511388 435.21461108 -48 433 C-48 415.84 -48 398.68 -48 381 C-63.84 381 -79.68 381 -96 381 C-96 385.95 -96 390.9 -96 396 C-98.26450859 399.77418099 -99.79067288 402.03402211 -102.79296875 404.98828125 C-103.50517578 405.69404297 -104.21738281 406.39980469 -104.95117188 407.12695312 C-105.68916016 407.84818359 -106.42714844 408.56941406 -107.1875 409.3125 C-107.93708984 410.05306641 -108.68667969 410.79363281 -109.45898438 411.55664062 C-111.30153282 413.37571712 -113.14859662 415.18994389 -115 417 C-114.69255859 417.76699219 -114.38511719 418.53398437 -114.06835938 419.32421875 C-109.82633628 430.19682639 -109.05731269 441.61452362 -113.6796875 452.5078125 C-118.96318068 462.48079668 -126.63356535 469.79762996 -137.375 473.4375 C-149.2723169 476.65074508 -159.44344861 475.26879435 -170.1875 469.3125 C-178.77699053 463.83299742 -185.05500757 455.56936543 -187.61328125 445.61328125 C-189.30782596 434.16226697 -187.80463448 424.6274278 -182.0625 414.625 C-175.91806287 406.80480729 -168.0723264 399.68105587 -158 398 C-148.22903598 397.30688728 -139.31172443 397.62123174 -130 401 C-122.03075181 395.12810911 -122.03075181 395.12810911 -117.33496094 386.69580078 C-116.42836727 380.23728945 -116.43601463 373.28102129 -119.27734375 367.3203125 C-120.75004132 365.37391789 -120.75004132 365.37391789 -122.39672852 363.80126953 C-128.9585649 356.42907084 -127.37622937 345.01913903 -127.1340332 335.85107422 C-126.71036127 327.83464396 -126.71036127 327.83464396 -129.70043945 320.71484375 C-131.72602258 319.00277996 -133.82796183 317.51789955 -136 316 C-138.20703125 313.078125 -138.20703125 313.078125 -139.8125 310.25 C-140.35519531 309.32703125 -140.89789063 308.4040625 -141.45703125 307.453125 C-146.21152109 296.81269711 -146.44219833 286.61985378 -146.52734375 275.11914062 C-146.67785771 266.96039864 -147.10471583 259.71259257 -152.6875 253.25 C-153.12449219 252.71890625 -153.56148437 252.1878125 -154.01171875 251.640625 C-161.75694837 245.24966932 -172.33233254 243.47767597 -181.81762695 240.92724609 C-183.88529636 240.36800348 -185.94848774 239.79411643 -188.01171875 239.21875 C-189.23334717 238.88810547 -190.45497559 238.55746094 -191.71362305 238.21679688 C-195.17291923 236.93597582 -197.35245442 235.55176324 -200 233 C-201.07917226 229.76248322 -201.11425601 227.42248229 -201.09765625 224.01953125 C-201.09282227 222.27446289 -201.09282227 222.27446289 -201.08789062 220.49414062 C-201.07532227 218.67172852 -201.07532227 218.67172852 -201.0625 216.8125 C-201.05798828 215.58595703 -201.05347656 214.35941406 -201.04882812 213.09570312 C-201.03703076 210.06378135 -201.01909514 207.0318846 -201 204 C-206.61 204 -212.22 204 -218 204 C-218.33 205.65 -218.66 207.3 -219 209 C-223.55930613 218.98162377 -230.7943787 226.18059463 -240.95703125 230.30859375 C-250.55175109 233.55575515 -262.22539146 233.32561867 -271.54296875 229.31640625 C-281.56621344 223.94624177 -288.57897143 215.88742367 -292.41113281 205.15258789 C-293.41059176 201.49909305 -293.4890478 197.95698365 -293.4375 194.1875 C-293.42920166 193.39996338 -293.42090332 192.61242676 -293.41235352 191.80102539 C-293.10475747 181.13368201 -289.56725146 172.62671906 -282 165 C-271.71260382 156.67904416 -261.12146804 153.9691327 -248 155 C-236.89673167 157.2504793 -228.67446206 162.82493772 -222.21875 172.078125 C-218 178.73076923 -218 178.73076923 -218 183 C-212.39 183 -206.78 183 -201 183 C-201.15662109 180.48439453 -201.15662109 180.48439453 -201.31640625 177.91796875 C-202.20242201 157.68398281 -202.20242201 157.68398281 -196.9375 151.375 C-194.44140625 149.00390625 -194.44140625 149.00390625 -192 147 C-190.78120549 145.78120549 -189.57178998 144.55290875 -188.375 143.3125 C-186.66498194 141.59052377 -184.99491771 139.99602526 -183.08203125 138.5 C-176.53884381 132.67184129 -177.00935477 125.42826358 -176.44140625 117.23828125 C-174.25445394 87.2731978 -158.21975484 59.39091611 -138 38 C-137.25363281 37.18917969 -136.50726563 36.37835938 -135.73828125 35.54296875 C-119.11082668 18.0910123 -97.15403261 6.25194432 -74 0 C-73.28215332 -0.20737793 -72.56430664 -0.41475586 -71.82470703 -0.62841797 C-49.44310073 -6.92433346 -22.26906662 -6.43328591 0 0 Z M-125.6875 54.3828125 C-143.48778355 74.52840367 -157.38067355 101.64537757 -157.01611328 129.03369141 C-156.95430463 137.7749336 -158.74518998 142.52797158 -164.81640625 148.8840332 C-165.56857422 149.63366333 -165.56857422 149.63366333 -166.3359375 150.3984375 C-166.88048584 150.95789063 -167.42503418 151.51734375 -167.98608398 152.09375 C-170 154 -170 154 -172.84399414 156.125 C-178.3846656 160.85818752 -181.14568044 164.52350276 -181.88183594 171.93310547 C-182.2183176 179.04841253 -181.96108376 186.13682221 -181.6875 193.25 C-181.632253 195.74859002 -181.58207528 198.24729756 -181.53710938 200.74609375 C-181.41660527 206.8333167 -181.23317141 212.91610564 -181 219 C-179.73857389 219.48095384 -178.47637764 219.95988807 -177.21386719 220.43798828 C-176.51106628 220.70491486 -175.80826538 220.97184143 -175.08416748 221.24685669 C-172.18248349 222.29542112 -169.23113727 223.08422885 -166.25 223.875 C-151.56058371 228.06525016 -140.43005136 233.46281089 -132.17578125 246.87890625 C-125.84196641 258.30502405 -125.66161573 268.97574896 -125.52148438 281.734375 C-125.32620435 290.61247166 -124.69641222 298.47529066 -118 305 C-112.29869515 308.84462992 -107.34234199 312.16438177 -100.3125 312.0625 C-99.10013672 312.04896484 -99.10013672 312.04896484 -97.86328125 312.03515625 C-97.24839844 312.02355469 -96.63351563 312.01195312 -96 312 C-95.98582031 310.83082031 -95.97164063 309.66164063 -95.95703125 308.45703125 C-95.91011562 306.90881543 -95.86186831 305.36063956 -95.8125 303.8125 C-95.80379883 302.65911133 -95.80379883 302.65911133 -95.79492188 301.48242188 C-95.63211088 297.26742624 -95.33650934 295.44181158 -92.703125 291.984375 C-88.63444955 288.99754389 -86.94348304 289.29378814 -82 290 C-79.56880377 291.87015094 -78.35930827 293.28138345 -77 296 C-76.76759495 298.71426141 -76.58091198 301.40633767 -76.4375 304.125 C-76.2209375 308.023125 -76.2209375 308.023125 -76 312 C-66.43 312 -56.86 312 -47 312 C-46.86934941 306.63090595 -46.86934941 306.63090595 -46.79223633 301.26098633 C-46.62115376 297.13686694 -46.28566363 295.37393321 -43.69921875 291.98828125 C-40.06756267 289.31315398 -40.06756267 289.31315398 -37 289.375 C-36.360625 289.36210937 -35.72125 289.34921875 -35.0625 289.3359375 C-31.63581874 290.43922503 -30.17041516 292.15893024 -28 295 C-27.27862218 297.94580555 -27.21150999 300.7892657 -27.1875 303.8125 C-27.125625 306.514375 -27.06375 309.21625 -27 312 C-17.43 312 -7.86 312 2 312 C2.248876 306.91499924 2.248876 306.91499924 2.47802734 301.82910156 C2.85809866 295.00157602 2.85809866 295.00157602 5 292 C8.16818756 289.88787496 10.13219252 289.66843536 13.8671875 289.44140625 C17.41036875 290.36938229 18.81119381 292.11390802 21 295 C21.71919381 297.94088665 21.78972956 300.79415133 21.8125 303.8125 C21.83763672 304.60076172 21.86277344 305.38902344 21.88867188 306.20117188 C21.94722981 308.13358373 21.97655488 310.06684327 22 312 C29.89481822 312.26446662 36.77199446 310.67855778 42.9375 305.5625 C43.618125 304.716875 44.29875 303.87125 45 303 C45.721875 302.195625 46.44375 301.39125 47.1875 300.5625 C50.49139264 295.89147937 51.24169488 291.38383972 51.2734375 285.74609375 C51.2940625 284.56080078 51.3146875 283.37550781 51.3359375 282.15429688 C51.36169108 279.70384357 51.38009059 277.25330037 51.390625 274.80273438 C51.67195076 260.32227218 55.7480063 247.68972375 65.5 236.8125 C75.82400107 227.18580482 89.78455781 223.9850306 103.06738281 220.55322266 C105.05861866 220.04727259 105.05861866 220.04727259 107 219 C107.3584564 211.72816567 107.60151818 204.4586443 107.76904297 197.17993164 C107.83894515 194.71096723 107.93411306 192.24257173 108.05615234 189.77563477 C109.21528333 173.28540934 109.21528333 173.28540934 102.18862915 159.02137756 C99.81298304 156.65455065 97.35673229 154.47403871 94.72848511 152.39219666 C89.33320142 148.04660185 84.14945849 143.15369138 83.375 135.98828125 C83.194061 132.93163201 83.17060016 129.8816089 83.1484375 126.8203125 C82.74316257 96.62118942 65.3586942 68.42210938 44.73828125 47.73046875 C21.34761522 25.65431949 -9.64784107 15.08384794 -41.51171875 15.78125 C-73.94797839 16.89151047 -103.14228946 31.11293448 -125.6875 54.3828125 Z " fill="#052A75" transform="translate(293,4)"/>
<path d="M0 0 C20.71788275 19.19791049 36.05761312 46.04569795 38.8125 74.5625 C38.79675111 75.95593463 38.76689261 77.3492476 38.7265625 78.7421875 C38.56142431 88.5240121 39.75555369 94.25613698 46.62841797 101.44458008 C47.13002441 101.94497803 47.63163086 102.44537598 48.1484375 102.9609375 C48.96526001 103.80011719 48.96526001 103.80011719 49.79858398 104.65625 C51.87198906 106.69261524 51.87198906 106.69261524 54.65649414 108.6875 C60.1971656 113.42068752 62.95818044 117.08600276 63.69433594 124.49560547 C64.0308176 131.61091253 63.77358376 138.69932221 63.5 145.8125 C63.444753 148.31109002 63.39457528 150.80979756 63.34960938 153.30859375 C63.22910527 159.3958167 63.04567141 165.47860564 62.8125 171.5625 C59.92770301 172.5331281 57.04219988 173.50156077 54.15625 174.46875 C53.34381836 174.74235352 52.53138672 175.01595703 51.69433594 175.29785156 C47.59165591 176.67095948 43.50244808 177.97534719 39.3125 179.0625 C26.91553451 182.74750864 18.22850499 191.24446225 12.13671875 202.36328125 C8.31930624 211.58587962 7.32005476 220.32449903 7.125 230.25 C7.09083984 231.44044922 7.05667969 232.63089844 7.02148438 233.85742188 C6.93991334 236.75902018 6.87047252 239.6603508 6.8125 242.5625 C1.89358638 239.90814284 -2.2968374 237.04531256 -6.5 233.375 C-7.05977539 232.89305176 -7.61955078 232.41110352 -8.19628906 231.91455078 C-9.86660938 230.47122271 -11.5284058 229.01870894 -13.1875 227.5625 C-14.09371094 226.76972656 -14.99992187 225.97695313 -15.93359375 225.16015625 C-18.37935816 222.98911109 -20.79204182 220.78886702 -23.1875 218.5625 C-23.92355469 217.88058594 -24.65960938 217.19867188 -25.41796875 216.49609375 C-32.08296522 210.09061926 -37.64881608 202.93489733 -43.1875 195.5625 C-43.62239746 194.98838379 -44.05729492 194.41426758 -44.50537109 193.82275391 C-64.50175826 167.27464944 -77.30100404 136.17648391 -83.1875 103.5625 C-83.37368896 102.63260254 -83.55987793 101.70270508 -83.75170898 100.74462891 C-85.49257356 91.1632942 -85.52547982 81.64210768 -85.50317383 71.93652344 C-85.50003623 69.09530398 -85.52347004 66.25515239 -85.54882812 63.4140625 C-85.60871451 46.50082934 -83.94114154 29.84625082 -79.1875 13.5625 C-80.14527344 13.57821045 -81.10304688 13.5939209 -82.08984375 13.61010742 C-85.67553145 13.66479712 -89.261183 13.69899047 -92.84716797 13.72729492 C-94.39312968 13.7422933 -95.93904948 13.76269887 -97.48486328 13.78881836 C-108.53107345 13.97066365 -117.0648621 13.65788504 -126.1875 6.5625 C-130.43735744 2.00218219 -132.9688464 -2.64502136 -135.5 -8.3125 C-135.85900391 -9.09625 -136.21800781 -9.88 -136.58789062 -10.6875 C-137.46269561 -12.60040689 -138.32627427 -14.51844117 -139.1875 -16.4375 C-92.86535951 -41.5624295 -39.49306769 -34.5108653 0 0 Z " fill="#66CBD0" transform="translate(337.1875,51.4375)"/>
<path d="M0 0 C0.89460938 -0.00128906 1.78921875 -0.00257813 2.7109375 -0.00390625 C3.65195313 -0.00003906 4.59296875 0.00382812 5.5625 0.0078125 C6.97402344 0.00201172 6.97402344 0.00201172 8.4140625 -0.00390625 C9.75597656 -0.00197266 9.75597656 -0.00197266 11.125 0 C11.95128906 0.00112793 12.77757812 0.00225586 13.62890625 0.00341797 C15.5625 0.1328125 15.5625 0.1328125 16.5625 1.1328125 C16.65590434 2.75956028 16.67995171 4.39035301 16.67602539 6.01977539 C16.67594986 7.06077896 16.67587433 8.10178253 16.67579651 9.17433167 C16.67063522 10.3066069 16.66547394 11.43888214 16.66015625 12.60546875 C16.6587413 13.75824814 16.65732635 14.91102753 16.65586853 16.09873962 C16.65025005 19.79762314 16.63769442 23.49644714 16.625 27.1953125 C16.61998738 29.69596267 16.61542406 32.19661379 16.61132812 34.69726562 C16.60027462 40.84246838 16.58351852 46.98763619 16.5625 53.1328125 C17.18454315 53.33482773 17.8065863 53.53684296 18.44747925 53.74497986 C19.26129059 54.01210281 20.07510193 54.27922577 20.91357422 54.55444336 C21.72124237 54.81833359 22.52891052 55.08222382 23.36105347 55.35411072 C32.14191981 58.46010315 37.35324198 66.21978398 41.62890625 74.09765625 C45.95051382 83.97263394 45.27116162 95.22946335 41.5625 105.1328125 C36.78575191 115.64776277 28.91277652 123.20866653 18.06640625 127.28125 C7.83842225 129.76698078 -3.22874804 129.51252088 -12.7578125 124.80078125 C-22.93859813 118.46376162 -29.95774786 110.02215611 -32.875 98.2578125 C-34.66911909 86.60528646 -32.39810178 75.68379445 -25.8125 65.9453125 C-20.35073076 59.1284714 -13.74771443 55.40039646 -5.4375 53.1328125 C-5.43972061 52.48357315 -5.44194122 51.8343338 -5.44422913 51.16542053 C-5.46628002 44.43393502 -5.48140577 37.70245969 -5.49243164 30.97094727 C-5.49747363 28.45564355 -5.50430703 25.94034278 -5.51293945 23.42504883 C-5.52501094 19.81851475 -5.53072949 16.21201927 -5.53515625 12.60546875 C-5.54031754 11.47319351 -5.54547882 10.34091827 -5.55079651 9.17433167 C-5.55090981 7.61282631 -5.55090981 7.61282631 -5.55102539 6.01977539 C-5.553246 5.09822159 -5.55546661 4.17666779 -5.55775452 3.22718811 C-5.33561151 -0.64169683 -3.38856037 0.00462557 0 0 Z " fill="#052A74" transform="translate(250.4375,383.8671875)"/>
<path d="M0 0 C8.14202428 5.94994082 14.87925884 14.28909701 16.4609375 24.45703125 C17.04684021 37.38776776 16.45051028 47.70183712 8.4609375 58.45703125 C1.54502065 66.02294028 -6.71517078 70.99297618 -17.04296875 71.6953125 C-28.82562201 72.01957903 -38.15278617 70.30450625 -47.46875 62.5078125 C-54.88524477 55.16128466 -59.84134881 46.44878953 -60.00756836 35.91186523 C-59.99222046 34.78953491 -59.99222046 34.78953491 -59.9765625 33.64453125 C-59.96826416 32.85699463 -59.95996582 32.06945801 -59.95141602 31.25805664 C-59.64381997 20.59071326 -56.10631396 12.08375031 -48.5390625 4.45703125 C-34.50574871 -6.8938084 -15.86298437 -9.63981358 0 0 Z " fill="#052A74" transform="translate(59.5390625,164.54296875)"/>
<path d="M0 0 C8.71721244 6.21625431 14.16192575 15.08016896 16.54296875 25.4921875 C17.77538122 37.76092286 15.81851223 47.3516283 8.4296875 57.234375 C1.28329817 65.78636886 -7.88106341 70.60501841 -18.94921875 71.75 C-29.45992542 72.20698725 -39.44220814 69.3947915 -47.4609375 62.46484375 C-56.11869922 53.90873872 -60.57044356 45.28817003 -60.95703125 32.9921875 C-60.57788412 21.29786824 -56.69268604 12.79647275 -48.45703125 4.4921875 C-34.55758399 -7.43018321 -15.95839998 -9.79323115 0 0 Z " fill="#052A75" transform="translate(390.45703125,407.5078125)"/>
<path d="M0 0 C4.39423778 3.21152368 7.64904628 6.0439974 10.57421875 10.69140625 C11.15558594 11.59503906 11.73695313 12.49867188 12.3359375 13.4296875 C17.12122305 22.53016758 17.2416453 33.66106685 15.234375 43.61328125 C11.70765429 54.32966863 4.65971883 61.93141829 -5.11328125 67.37890625 C-14.51421995 71.7964042 -26.18294855 72.00692124 -35.98828125 68.81640625 C-45.55285124 64.75784984 -53.77862841 57.46360121 -58.2421875 47.98046875 C-61.33587647 38.74102099 -61.87944284 25.52069911 -58.15234375 16.39453125 C-52.26234161 4.96881281 -44.75367639 -1.2327035 -32.92578125 -5.87109375 C-21.0190163 -8.21340817 -10.1472669 -6.66946176 0 0 Z " fill="#062A74" transform="translate(496.11328125,165.62109375)"/>
<path d="M0 0 C8.65965131 6.62346303 16.40362878 15.05958503 18.265625 26.1484375 C19.30219352 37.79687628 18.00769871 47.3259566 11.078125 56.8984375 C3.24105683 66.16042716 -5.4934224 71.0627181 -17.66015625 72.4921875 C-28.91376254 72.87420525 -39.38324869 68.89410624 -47.7421875 61.33203125 C-56.43608065 52.01714573 -59.11112754 42.28014039 -59.01953125 29.796875 C-58.13653703 18.49938725 -52.36461903 9.87720098 -43.953125 2.609375 C-32.04589667 -6.98255893 -12.92139719 -8.74963181 0 0 Z " fill="#062A75" transform="translate(163.734375,406.8515625)"/>
<path d="M0 0 C-10.24724336 23.42227054 -10.24724336 23.42227054 -21.203125 28.30859375 C-25.00210285 29.77037436 -27.9371143 30.13566441 -31.99682617 30.16113281 C-33.84971504 30.17554413 -33.84971504 30.17554413 -35.74003601 30.19024658 C-37.09101171 30.19509615 -38.44198956 30.19937458 -39.79296875 30.203125 C-41.18199158 30.20888083 -42.57101441 30.21463851 -43.96003723 30.22039795 C-46.87448495 30.23090191 -49.78890516 30.2367478 -52.70336914 30.24023438 C-56.4210228 30.2457027 -60.13830716 30.26969715 -63.85584545 30.29820633 C-66.72735113 30.31692255 -69.59876969 30.32204316 -72.47033119 30.32357025 C-73.83974528 30.32657962 -75.20915847 30.33454962 -76.57851219 30.34775543 C-86.98264441 30.44088803 -94.55269207 29.57012839 -103 23 C-107.24985744 18.43968219 -109.7813464 13.79247864 -112.3125 8.125 C-112.67150391 7.34125 -113.03050781 6.5575 -113.40039062 5.75 C-114.27519561 3.83709311 -115.13877427 1.91905883 -116 0 C-79.8638183 -19.60010932 -36.0145551 -21.31682504 0 0 Z " fill="#D0DAFB" transform="translate(314,35)"/>
<path d="M0 0 C7.62177931 5.39101463 13.50751866 12.91858705 15.3125 22.25 C16.23358276 33.25769398 14.58431833 42.13829525 8 51.125 C0.86140731 59.55605368 -7.40679164 62.92704659 -18.328125 64.671875 C-27.19281528 65.18659895 -35.51579378 61.41723 -42.1875 55.75 C-43.37483222 54.6043716 -44.54464983 53.44000661 -45.6875 52.25 C-46.43 51.486875 -47.1725 50.72375 -47.9375 49.9375 C-53.20690682 41.84519667 -55.62996048 32.8361695 -54.6875 23.25 C-52.41453626 13.50090252 -47.46893761 5.64242691 -39.25 -0.125 C-26.40012896 -7.89971189 -12.86426983 -8.00538589 0 0 Z " fill="#FDFEFE" transform="translate(332.6875,140.75)"/>
<path d="M0 0 C6.93181125 5.5718559 12.04569432 13.68245071 13.61328125 22.4609375 C14.58541005 32.87155322 11.98466734 42.15568897 5.61328125 50.4609375 C-1.1490317 58.54595225 -9.30596799 62.57057097 -19.7265625 63.71875 C-29.52219685 64.18299807 -37.93123359 60.69326762 -45.3828125 54.44140625 C-52.86561363 47.04612326 -56.44535776 38.44822526 -56.82421875 28.0234375 C-56.56596577 18.38947846 -52.96358301 10.47525374 -46.38671875 3.4609375 C-32.59571437 -8.70272836 -15.66244286 -10.0998404 0 0 Z " fill="#D0DBFC" transform="translate(220.38671875,141.5390625)"/>
<path d="M0 0 C45.54 0 91.08 0 138 0 C138 19 138 19 134 25 C128.63849058 28.91894373 122.86282605 28.4305722 116.49023438 28.40405273 C114.76236443 28.41434761 114.76236443 28.41434761 112.99958801 28.42485046 C109.19751612 28.44312988 105.39585635 28.43927948 101.59375 28.43359375 C98.94868841 28.43815462 96.30362801 28.4434599 93.65856934 28.44947815 C88.11722886 28.45949792 82.57600516 28.45621744 77.03466797 28.44604492 C70.63726877 28.43456011 64.24028862 28.44864901 57.84294462 28.4754414 C51.67701031 28.50029363 45.51126895 28.50277267 39.34529114 28.49632454 C36.72662153 28.49617111 34.10794393 28.50223312 31.48930359 28.51461601 C27.82913993 28.52948675 24.16990029 28.51887664 20.50976562 28.50170898 C19.42802567 28.51137695 18.34628571 28.52104492 17.23176575 28.53100586 C11.35073094 28.47322073 7.51753575 28.17526857 3 24 C0 19 0 19 0 0 Z " fill="#26A1CB" transform="translate(187,336)"/>
<path d="M0 0 C7.50213271 -0.12044708 14.11967795 1.80617745 21.125 4.25 C21.9593457 4.5375415 22.79369141 4.82508301 23.65332031 5.12133789 C29.44501597 7.210249 34.70787462 9.86073863 40 13 C29.75275664 36.42227054 29.75275664 36.42227054 18.796875 41.30859375 C14.76852098 42.85863432 11.67549527 43.11648688 7.36328125 43.09765625 C6.06455078 43.09443359 4.76582031 43.09121094 3.42773438 43.08789062 C2.05598892 43.07953531 0.68424413 43.07107037 -0.6875 43.0625 C-2.07096195 43.05748335 -3.45442563 43.05292073 -4.83789062 43.04882812 C-8.22530395 43.03702529 -11.61263033 43.02056019 -15 43 C-14.51052749 35.99132113 -12.91173814 30.25468935 -10.3125 23.75 C-9.95671875 22.83774658 -9.6009375 21.92549316 -9.234375 20.9855957 C-6.42390491 13.86057555 -3.36982035 6.88004988 0 0 Z " fill="#FDFEFE" transform="translate(274,22)"/>
<path d="M0 0 C0.89460937 -0.00128906 1.78921875 -0.00257813 2.7109375 -0.00390625 C3.65195313 -0.00003906 4.59296875 0.00382812 5.5625 0.0078125 C6.97402344 0.00201172 6.97402344 0.00201172 8.4140625 -0.00390625 C9.75597656 -0.00197266 9.75597656 -0.00197266 11.125 0 C11.95128906 0.00112793 12.77757812 0.00225586 13.62890625 0.00341797 C15.5625 0.1328125 15.5625 0.1328125 16.5625 1.1328125 C16.65590434 2.75956028 16.67995171 4.39035301 16.67602539 6.01977539 C16.67594986 7.06077896 16.67587433 8.10178253 16.67579651 9.17433167 C16.67063522 10.3066069 16.66547394 11.43888214 16.66015625 12.60546875 C16.6587413 13.75824814 16.65732635 14.91102753 16.65586853 16.09873962 C16.65025005 19.79762314 16.63769442 23.49644714 16.625 27.1953125 C16.61998738 29.69596267 16.61542406 32.19661379 16.61132812 34.69726562 C16.60027462 40.84247101 16.5829976 46.98763165 16.5625 53.1328125 C9.3025 53.1328125 2.0425 53.1328125 -5.4375 53.1328125 C-5.46214071 45.74552659 -5.4803316 38.35826438 -5.49243164 30.97094727 C-5.49747363 28.45564355 -5.50430703 25.94034278 -5.51293945 23.42504883 C-5.52501094 19.81851475 -5.53072949 16.21201927 -5.53515625 12.60546875 C-5.54031754 11.47319351 -5.54547882 10.34091827 -5.55079651 9.17433167 C-5.55087204 8.13332809 -5.55094757 7.09232452 -5.55102539 6.01977539 C-5.553246 5.09822159 -5.55546661 4.17666779 -5.55775452 3.22718811 C-5.33561151 -0.64169683 -3.38856037 0.00462557 0 0 Z " fill="#27A0CB" transform="translate(250.4375,383.8671875)"/>
<path d="M0 0 C6.0207932 2.97354423 8.14004583 7.63446235 11.3125 13.3125 C11.86228516 14.25029297 12.41207031 15.18808594 12.97851562 16.15429688 C13.49736328 17.06888672 14.01621094 17.98347656 14.55078125 18.92578125 C15.02169189 19.75505127 15.49260254 20.58432129 15.9777832 21.4387207 C17.20341689 24.50968392 17.31129958 26.71874162 17 30 C14.93607742 33.52864183 13.71940527 35.41235516 9.83984375 36.73828125 C5.66367146 37.42850004 3.65089953 37.38522625 -0.0625 35.1875 C-2 33 -2 33 -2 31 C-2.66 31 -3.32 31 -4 31 C-4.2475 31.61875 -4.495 32.2375 -4.75 32.875 C-6.27221172 35.46275992 -7.16777975 36.05592658 -10 37 C-13.02104186 37.45972376 -15.03825508 37.60025379 -17.68359375 35.94921875 C-19.88559657 34.15910135 -21.71983651 32.56032698 -23 30 C-23.34423034 25.51642911 -22.76122778 22.81836057 -20.55078125 18.92578125 C-20.03193359 18.01119141 -19.51308594 17.09660156 -18.97851562 16.15429688 C-18.42873047 15.21650391 -17.87894531 14.27871094 -17.3125 13.3125 C-16.78205078 12.36310547 -16.25160156 11.41371094 -15.70507812 10.43554688 C-11.8184586 3.69715007 -8.52408011 -1.06551001 0 0 Z " fill="#052C76" transform="translate(259,229)"/>
<path d="M0 0 C4.64943348 4.42952785 7.10811579 8.14883691 7.375 14.6875 C7.29342544 20.28351448 5.75862224 23.87557511 2 28 C-1.94010533 31.59065031 -5.65747436 33.3131475 -11 33.625 C-17.2391443 33.26081032 -21.43874155 30.81052934 -25.60546875 26.23828125 C-28.8232083 21.79473616 -29.72750604 17.84517409 -29.41796875 12.390625 C-28.26965905 5.82272282 -24.2805007 1.74035466 -19 -2 C-12.77405993 -4.69790737 -5.6382997 -3.23680168 0 0 Z " fill="#F9C850" transform="translate(267,459)"/>
<path d="M0 0 C5.11878455 1.83519124 8.98346511 5.07318729 11.375 9.984375 C13.11587591 15.5986998 12.7437421 21.04611426 10.3125 26.375 C7.76690977 30.8052202 4.81738431 33.20983291 0.125 35.25 C-5.16649822 36.51995957 -8.62767845 36.63883934 -13.625 34.3125 C-18.48389559 31.21154192 -22.56396879 27.74412483 -24 22 C-24.6722514 16.51856555 -24.33012309 12.25251046 -21.28125 7.5703125 C-15.26107126 0.1919227 -9.22282219 -1.00549565 0 0 Z " fill="#F9C850" transform="translate(44,180)"/>
<path d="M0 0 C4.7210664 2.82026251 8.2794839 6.07068655 10.7734375 11.05859375 C11.45911036 18.46610871 11.47492651 24.11987079 6.7734375 30.05859375 C1.38692894 34.2358861 -2.89577327 35.48638879 -9.58984375 35.3984375 C-15.4884577 34.6381717 -19.06453433 31.48207826 -22.7265625 26.99609375 C-25.17976446 22.00207546 -24.96380955 16.46005683 -24.2265625 11.05859375 C-21.90682825 6.1514636 -18.50879319 3.24748895 -14.2265625 0.05859375 C-9.45849144 -1.53076327 -4.72202224 -1.99650414 0 0 Z " fill="#F97B9F" transform="translate(150.2265625,422.94140625)"/>
<path d="M0 0 C4.7210664 2.82026251 8.2794839 6.07068655 10.7734375 11.05859375 C11.50572532 17.85840923 11.57273301 23.79483508 7.37890625 29.43359375 C3.19120086 33.67224446 -1.33156397 35.26793716 -7.2265625 35.62109375 C-12.57836677 35.3740874 -16.27047947 33.63183003 -20.2265625 30.05859375 C-24.44350342 24.89284112 -24.85645797 20.46863273 -24.609375 13.86328125 C-23.88212606 8.5350696 -21.02658414 5.65590089 -17.1640625 2.24609375 C-12.08355902 -1.5372599 -5.93714051 -2.51026467 0 0 Z " fill="#B998F2" transform="translate(375.2265625,422.94140625)"/>
<path d="M0 0 C4.36775158 3.14884416 7.96773395 6.77820184 9.6875 11.9375 C10.2510668 17.62735711 10.01546433 22.10658403 6.6875 26.9375 C1.7895027 31.76746956 -1.44619853 34.10735157 -8.4375 34.375 C-14.15182787 34.32443073 -17.53605185 33.54846256 -21.7890625 29.69921875 C-25.98761375 24.84397102 -26.94099975 19.67062343 -26.72265625 13.43359375 C-25.90557721 8.46108416 -23.47594852 4.92674877 -19.80859375 1.5546875 C-13.93528164 -2.49294446 -6.55816356 -2.1035619 0 0 Z " fill="#FAC950" transform="translate(482.3125,181.0625)"/>
<path d="M0 0 C-0.11794922 1.83111328 -0.11794922 1.83111328 -0.23828125 3.69921875 C-0.61370329 14.12281977 -0.61370329 14.12281977 3.9609375 23.15625 C7.07737913 26.39726279 10.44831748 29.24855749 14 32 C11.55759688 34.48317779 9.21885848 36.83452164 6.4375 38.9375 C3.62855111 41.31430291 1.91617269 43.8773482 0 47 C-3.20991748 45.58460683 -5.37654845 43.88037968 -7.85546875 41.41015625 C-8.55994141 40.70826172 -9.26441406 40.00636719 -9.99023438 39.28320312 C-10.71533203 38.55037109 -11.44042969 37.81753906 -12.1875 37.0625 C-13.29254883 35.96905273 -13.29254883 35.96905273 -14.41992188 34.85351562 C-15.12052734 34.15033203 -15.82113281 33.44714844 -16.54296875 32.72265625 C-17.18258545 32.08078369 -17.82220215 31.43891113 -18.48120117 30.77758789 C-21.7440899 26.95873355 -21.11625329 22.5469242 -21.0625 17.8125 C-21.05798828 17.06291016 -21.05347656 16.31332031 -21.04882812 15.54101562 C-21.03706354 13.69397617 -21.01912865 11.84697787 -21 10 C-20.2265625 9.78085937 -19.453125 9.56171875 -18.65625 9.3359375 C-12.38621633 7.42699161 -7.47054642 5.39151295 -2.42578125 1.171875 C-1 0 -1 0 0 0 Z " fill="#26A1CB" transform="translate(336,374)"/>
<path d="M0 0 C0.67804688 0.47050781 1.35609375 0.94101562 2.0546875 1.42578125 C8.2012685 5.5376907 13.78007486 8.3555485 21 10 C21.08132187 12.56314499 21.14064175 15.12368418 21.1875 17.6875 C21.21263672 18.40873047 21.23777344 19.12996094 21.26367188 19.87304688 C21.36158525 27.02072351 19.01205766 30.01755121 14.27734375 34.98828125 C12.83597569 36.43493389 11.38919352 37.87620906 9.9375 39.3125 C9.20466797 40.05306641 8.47183594 40.79363281 7.71679688 41.55664062 C7.01490234 42.25595703 6.31300781 42.95527344 5.58984375 43.67578125 C4.94909912 44.31427002 4.30835449 44.95275879 3.64819336 45.6105957 C2 47 2 47 0 47 C-1.11691991 45.64731864 -2.16920843 44.24090443 -3.1875 42.8125 C-6.39407724 38.54155469 -9.50428692 35.84422665 -14 33 C-13.154375 31.989375 -12.30875 30.97875 -11.4375 29.9375 C-10.89609375 29.28136719 -10.3546875 28.62523437 -9.796875 27.94921875 C-8 26 -8 26 -6.078125 24.64453125 C-3.0700212 22.42574394 -1.30172493 20.62003639 -0.59667969 16.83447266 C-0.01271237 11.22991739 0.03937312 5.63035654 0 0 Z " fill="#26A1CB" transform="translate(176,374)"/>
<path d="M0 0 C5.61 0 11.22 0 17 0 C17 6.93 17 13.86 17 21 C11.39 21 5.78 21 0 21 C0 14.07 0 7.14 0 0 Z " fill="#26A1CB" transform="translate(420,187)"/>
<path d="M0 0 C5.61 0 11.22 0 17 0 C17 6.93 17 13.86 17 21 C11.39 21 5.78 21 0 21 C0 14.07 0 7.14 0 0 Z " fill="#26A1CB" transform="translate(75,187)"/>
</svg>
